<svg xmlns="http://www.w3.org/2000/svg" width="195" height="53" viewBox="0 0 195 53" fill="none"><path d="M193.973 25.6966C179.394 34.7045 164.844 43.694 150.258 52.7061V16.7153C150.701 17.0224 151.117 17.3111 151.533 17.6003C152.557 18.3121 153.576 19.03 154.608 19.7313C154.807 19.867 154.876 20.0063 154.875 20.2358C154.869 28.2858 154.87 36.336 154.87 44.386V44.8337C165.129 38.3972 175.339 31.9902 185.588 25.5597C185.063 25.1995 184.574 24.8629 184.083 24.5278C175.878 18.9233 167.673 13.3187 159.464 7.71846C159.261 7.57967 159.173 7.43781 159.174 7.19235C159.188 5.5906 159.181 3.98885 159.181 2.38709V1.99854C170.805 9.91662 182.377 17.7976 193.973 25.6966Z" fill="#F8AA16"></path><path d="M48.0772 33.7126V44.8755H42V14.8457H48.0362V17.3084C48.0641 17.3282 48.0922 17.3485 48.1209 17.3683C48.2209 17.2566 48.3141 17.1382 48.4225 17.0346C49.98 15.5525 51.8385 14.5922 54.0416 14.356C57.9391 13.9384 61.3276 14.9573 64.0358 17.7205C65.8493 19.5708 66.8342 21.7658 67.0548 24.2742C67.3231 27.3279 66.6189 30.1217 64.566 32.5494C62.6417 34.8254 60.1631 36.2045 57.0879 36.5522C53.7224 36.9334 50.7294 36.1711 48.2737 33.8656C48.2299 33.8243 48.1784 33.7916 48.0772 33.7126ZM47.95 25.4824C47.9401 28.9864 50.6791 31.57 54.4143 31.5804C58.1897 31.591 60.962 29.0184 60.9725 25.4992C60.9829 22.1735 58.3679 19.3931 54.4638 19.4036C50.7019 19.4135 47.9598 21.9472 47.95 25.4824Z" fill="white"></path><path d="M177.774 25.466C171.576 29.456 165.415 33.4225 159.204 37.4203C159.194 37.2687 159.183 37.1724 159.183 37.0763C159.182 35.4436 159.187 33.811 159.177 32.1784C159.176 31.9565 159.251 31.8311 159.448 31.7104C162.87 29.6053 166.287 27.4927 169.704 25.3822C169.795 25.3262 169.885 25.2688 170.016 25.1868C162.061 19.7369 154.124 14.2995 146.124 8.8195V9.21608C146.124 17.82 146.123 26.4247 146.131 35.0284C146.131 35.3245 146.054 35.4985 145.771 35.6619C144.446 36.426 143.14 37.2198 141.826 38.0019C141.728 38.06 141.627 38.1123 141.504 38.1803V0.602295C153.609 8.90029 165.674 17.1718 177.774 25.466Z" fill="#F8AA16"></path><path d="M24.9721 36.1298H19.2186V33.7126C19.1298 33.7706 19.077 33.7953 19.0372 33.8329C17.0253 35.7233 14.5925 36.6269 11.7635 36.6405C9.15829 36.6527 6.747 36.0706 4.65426 34.562C2.08045 32.706 0.567343 30.2501 0.146315 27.2106C-0.163745 24.9749 -0.0240553 22.7699 0.984456 20.7037C2.72797 17.1308 5.6582 14.9672 9.81694 14.3905C12.6042 14.0038 15.2303 14.4084 17.5619 15.9972C18.1239 16.3802 18.6357 16.8286 19.1873 17.2597V14.8457H24.9727L24.9721 36.1298ZM6.11187 25.4455C6.07205 28.8679 8.96834 31.6112 12.6506 31.6205C16.6546 31.6304 19.3113 28.5707 19.2845 25.4867C19.2545 22.0162 16.4052 19.3247 12.6799 19.3228C8.91875 19.321 6.11972 21.9305 6.11187 25.4455Z" fill="white"></path><path d="M117.016 17.2696V14.8451H122.788V36.1211H117.036V33.714C116.948 33.7713 116.894 33.7953 116.854 33.8324C114.843 35.7227 112.41 36.6262 109.581 36.6405C106.976 36.6527 104.565 36.0711 102.471 34.5627C99.8969 32.7067 98.3845 30.2512 97.9627 27.2113C97.6527 24.9754 97.7923 22.7705 98.8002 20.7044C100.543 17.1314 103.473 14.9678 107.632 14.3905C110.419 14.0038 113.045 14.4084 115.377 15.9966C115.939 16.3796 116.45 16.8274 117.016 17.2696ZM103.928 25.4547C103.893 28.8746 106.792 31.6285 110.509 31.6205C114.472 31.6119 117.144 28.5656 117.102 25.4473C117.056 22.0008 114.199 19.3197 110.487 19.3228C106.728 19.3259 103.924 21.9485 103.928 25.4547Z" fill="white"></path><path d="M93.8566 36.1258H87.7685C87.7685 35.9832 87.7685 35.8532 87.7685 35.723C87.7685 32.0983 87.7704 28.4736 87.7671 24.8488C87.7665 23.9637 87.6875 23.0885 87.3623 22.2466C86.6745 20.4648 85.0966 19.4125 83.0881 19.3755C81.5326 19.3465 80.1442 19.7271 79.0221 20.7873C78.0586 21.6983 77.5932 22.8288 77.4797 24.0925C77.4321 24.6237 77.4352 25.159 77.4346 25.6931C77.4307 29.0305 77.4327 32.3672 77.4327 35.7046C77.4327 35.8364 77.4327 35.9691 77.4327 36.1215H71.3672V6.45422H77.2753V17.4839C77.6729 17.0861 78.0202 16.6778 78.4307 16.3386C79.9026 15.1248 81.6488 14.5092 83.5764 14.3217C85.5895 14.1262 87.5198 14.389 89.3142 15.3117C91.8678 16.6248 93.3449 18.649 93.7216 21.3726C93.8057 21.9808 93.8488 22.5982 93.8503 23.2118C93.8614 27.391 93.856 31.5704 93.856 35.7495C93.856 35.8698 93.8566 35.9906 93.8566 36.1258Z" fill="white"></path><path d="M36.5016 36.1417C34.5654 36.1417 32.6646 36.1417 30.7631 36.1417C30.6672 36.1417 30.5705 36.1417 30.4531 36.1417V6.38184H36.5016V36.1417Z" fill="white"></path><path d="M71.4015 43.8848V43.4339H72.5426V47.9504H71.4249C71.4178 47.8117 71.4106 47.6723 71.3989 47.46C70.8486 47.9801 70.2057 48.1541 69.4877 48.0898C68.7658 48.0257 68.1886 47.7156 67.7657 47.1568C67.066 46.2327 67.1397 44.816 67.9262 44.0162C68.8224 43.1039 69.9739 43.0564 71.4015 43.8848ZM71.4192 45.6709C71.4159 44.8815 70.7892 44.2899 69.9583 44.2906C69.1266 44.2918 68.5098 44.8789 68.5014 45.6783C68.4928 46.4881 69.1209 47.095 69.9635 47.0913C70.8009 47.0876 71.4231 46.4821 71.4192 45.6709Z" fill="white"></path><path d="M121.645 43.8864V43.4349H122.798V47.9496H121.668C121.661 47.8072 121.653 47.6623 121.644 47.5042C120.349 48.3326 119.065 48.2789 118.193 47.3747C117.357 46.5082 117.305 44.9948 118.082 44.109C118.949 43.1197 120.208 43.0363 121.645 43.8864ZM121.663 45.6927C121.665 44.8848 121.033 44.2822 120.193 44.2903C119.36 44.2988 118.747 44.8899 118.746 45.6872C118.745 46.499 119.377 47.1021 120.217 47.0917C121.046 47.0811 121.662 46.4847 121.663 45.6927Z" fill="white"></path><path d="M86.4766 46.1086C86.5955 46.8667 87.3467 47.217 88.0536 47.1331C88.5791 47.0709 89.0902 46.9006 89.6576 46.7667C89.7639 46.9414 89.9187 47.1956 90.0804 47.4613C89.5597 47.8424 88.9767 48.0436 88.3552 48.0738C87.8749 48.0973 87.3703 48.0738 86.9081 47.9583C85.7364 47.6654 85.0451 46.5985 85.1912 45.4191C85.3409 44.2177 86.2736 43.3457 87.4962 43.2994C87.8605 43.2858 88.2443 43.2975 88.5908 43.3906C89.8951 43.7423 90.3696 44.7433 90.2621 45.9385C90.243 46.1501 90.0831 46.1068 89.9507 46.1075C88.918 46.11 87.8859 46.1086 86.8533 46.1086C86.735 46.1086 86.617 46.1086 86.4766 46.1086ZM86.4643 45.2606H89.0492C88.9623 44.6198 88.4878 44.222 87.8336 44.2103C87.1195 44.1981 86.5784 44.602 86.4643 45.2606Z" fill="white"></path><path d="M105.189 48.0936C104.001 48.0925 103.078 47.5392 102.695 46.5985C102.306 45.642 102.558 44.5608 103.36 43.8997C104.189 43.2162 105.167 43.1319 106.172 43.4248C107.093 43.693 107.677 44.3159 107.848 45.2171C108.173 46.9318 106.812 48.1733 105.189 48.0936ZM105.227 47.0613C106.059 47.0562 106.694 46.4531 106.685 45.6766C106.676 44.8993 106.036 44.3166 105.196 44.3216C104.365 44.3265 103.724 44.9346 103.738 45.7061C103.752 46.4889 104.386 47.0661 105.227 47.0613Z" fill="white"></path><path d="M74.3516 47.1705C74.5845 46.9813 74.8228 46.7882 75.0193 46.6289C75.3861 46.7912 75.7771 46.9658 76.1708 47.1366C76.2184 47.1571 76.2765 47.1594 76.3307 47.1626C76.7041 47.1873 77.0442 47.0158 77.1017 46.7757C77.1598 46.5347 77.0062 46.357 76.5906 46.1985C76.2289 46.0609 75.8574 45.9457 75.5037 45.7934C74.9384 45.5498 74.6211 45.1445 74.6707 44.5315C74.7163 43.9614 75.0794 43.6211 75.608 43.4224C76.5005 43.0869 77.6068 43.3206 78.1931 43.969C77.9946 44.1909 77.7934 44.4161 77.5814 44.6534C77.2314 44.3698 76.864 44.1725 76.3978 44.2015C76.1349 44.2181 75.9109 44.2958 75.8607 44.5566C75.811 44.8145 76.0134 44.9403 76.2385 45.0249C76.6107 45.1654 76.9867 45.2961 77.3548 45.4436C78.0377 45.7176 78.3437 46.14 78.3222 46.7548C78.3033 47.2926 77.8895 47.7627 77.2472 47.9742C76.2067 48.3171 75.0018 47.9933 74.3516 47.1705Z" fill="white"></path><path d="M80.3684 46.6308C80.7717 46.8045 81.1654 46.9767 81.5622 47.1426C81.6191 47.1661 81.6901 47.1642 81.7547 47.1642C82.1144 47.1624 82.4161 47.0006 82.4578 46.7737C82.5224 46.4222 82.2332 46.3181 81.976 46.2119C81.6784 46.0893 81.3682 45.9955 81.0681 45.8789C80.2697 45.5673 79.9648 45.1491 80.0301 44.4684C80.0831 43.9114 80.5843 43.4729 81.3409 43.3211C82.1679 43.1551 83.0467 43.4082 83.5506 43.9693C83.3521 44.1914 83.1509 44.4165 82.9389 44.6539C82.5889 44.3684 82.2209 44.1716 81.7547 44.2013C81.4918 44.2179 81.2679 44.2963 81.2188 44.5571C81.1706 44.815 81.3729 44.9401 81.5975 45.0247C81.9694 45.1645 82.3455 45.2954 82.7137 45.4434C83.3958 45.7173 83.7019 46.1404 83.6797 46.7552C83.6602 47.2931 83.2456 47.7625 82.6033 47.974C81.5622 48.3169 80.3573 47.992 79.707 47.1654C79.94 46.9767 80.1791 46.7836 80.3684 46.6308Z" fill="white"></path><path d="M91.7128 47.1705C91.9478 46.9836 92.1874 46.793 92.3897 46.6326C92.7469 46.7912 93.1377 46.9656 93.5302 47.1359C93.5778 47.1562 93.6359 47.1587 93.6895 47.1624C94.062 47.1878 94.4036 47.0175 94.4623 46.7783C94.5222 46.5363 94.3695 46.3582 93.9538 46.1996C93.5928 46.0614 93.2206 45.9469 92.8662 45.7943C92.3011 45.5514 91.9825 45.1468 92.0307 44.5338C92.0757 43.9633 92.4374 43.6227 92.9661 43.4229C93.8551 43.0867 94.957 43.3188 95.5549 43.967C95.3566 44.1889 95.1561 44.414 94.9426 44.6527C94.5941 44.3716 94.2273 44.1716 93.7611 44.2006C93.4988 44.2168 93.2742 44.2933 93.2221 44.5534C93.1704 44.812 93.3721 44.9382 93.5967 45.0235C93.968 45.1641 94.3447 45.2947 94.7129 45.4422C95.3964 45.7162 95.7031 46.1379 95.6822 46.7522C95.6639 47.2912 95.2515 47.7613 94.609 47.9735C93.57 48.3176 92.37 47.9957 91.7128 47.1705Z" fill="white"></path><path d="M100.917 43.9634C100.709 44.1954 100.513 44.4132 100.378 44.5641C99.9399 44.4342 99.5567 44.2915 99.1591 44.2113C98.8986 44.159 98.6434 44.2676 98.5815 44.5438C98.5201 44.8183 98.7368 44.9423 98.9731 45.0305C99.3459 45.1692 99.7237 45.2969 100.089 45.4511C100.662 45.6928 101.061 46.0599 101.041 46.7111C101.024 47.2551 100.654 47.7234 100.039 47.9527C99.0189 48.3333 97.7629 48.0174 97.0703 47.1775C97.3092 46.9858 97.5533 46.7894 97.7458 46.6353C98.1174 46.7975 98.5096 46.974 98.9066 47.1385C98.9815 47.1694 99.0802 47.1731 99.163 47.1602C99.4423 47.1176 99.7545 47.0862 99.8178 46.7569C99.881 46.4288 99.5991 46.3184 99.3485 46.2177C98.9797 46.0705 98.5971 45.9532 98.2323 45.7979C97.667 45.5573 97.3484 45.1582 97.3844 44.5432C97.4137 44.0454 97.7662 43.6182 98.3413 43.414C99.2297 43.0988 100.279 43.3145 100.917 43.9634Z" fill="white"></path><path d="M110.977 47.9546H109.801V43.4282H110.927C110.939 43.5805 110.949 43.7261 110.965 43.9314C111.373 43.4337 111.869 43.2438 112.472 43.2887C112.884 43.3196 112.942 43.3733 112.899 43.7544C112.876 43.9667 112.845 44.1775 112.814 44.4169C112.651 44.3904 112.504 44.3607 112.356 44.3441C111.659 44.2676 111.072 44.7043 111.024 45.3963C110.973 46.1111 110.989 46.8296 110.977 47.5469C110.974 47.6778 110.977 47.8085 110.977 47.9546Z" fill="white"></path><path d="M114.539 43.413H115.684V47.9511H114.539V43.413Z" fill="white"></path><path d="M115.102 41.5024C115.556 41.498 115.888 41.7849 115.89 42.1851C115.893 42.5711 115.574 42.8654 115.14 42.8746C114.681 42.8845 114.351 42.6082 114.344 42.2073C114.337 41.7978 114.649 41.5065 115.102 41.5024Z" fill="white"></path></svg>