<svg xmlns="http://www.w3.org/2000/svg" width="40" height="40" viewBox="0 0 40 40" fill="none"><rect width="40" height="40" rx="12" fill="#102E4A"></rect><rect x="0.5" y="0.5" width="39" height="39" rx="11.5" stroke="#3B8DD9" stroke-opacity="0.22"></rect><path d="M14.7616 27V24.9L20.1616 19.8C20.5882 19.4133 20.9016 19.0667 21.1016 18.76C21.3016 18.4533 21.4349 18.1733 21.5016 17.92C21.5816 17.6667 21.6216 17.4333 21.6216 17.22C21.6216 16.66 21.4282 16.2333 21.0416 15.94C20.6682 15.6333 20.1149 15.48 19.3816 15.48C18.7949 15.48 18.2482 15.5933 17.7416 15.82C17.2482 16.0467 16.8282 16.4 16.4816 16.88L14.1216 15.36C14.6549 14.56 15.4016 13.9267 16.3616 13.46C17.3216 12.9933 18.4282 12.76 19.6816 12.76C20.7216 12.76 21.6282 12.9333 22.4016 13.28C23.1882 13.6133 23.7949 14.0867 24.2216 14.7C24.6616 15.3133 24.8816 16.0467 24.8816 16.9C24.8816 17.3533 24.8216 17.8067 24.7016 18.26C24.5949 18.7 24.3682 19.1667 24.0216 19.66C23.6882 20.1533 23.1949 20.7067 22.5416 21.32L18.0616 25.54L17.4416 24.36H25.3416V27H14.7616Z" fill="#7FBFFF"></path></svg>